<svg width="26" height="26" viewBox="0 0 26 26" fill="none" xmlns="http://www.w3.org/2000/svg">
<path d="M13 25.5C19.9035 25.5 25.5 19.9035 25.5 13C25.5 6.09651 19.9035 0.5 13 0.5C6.09651 0.5 0.5 6.09651 0.5 13C0.5 19.9035 6.09651 25.5 13 25.5Z" stroke="#0A1B36"/>
<path d="M13.0168 25.5C16.5037 25.5 19.3309 19.9035 19.3309 13C19.3309 6.09651 16.5037 0.5 13.0168 0.5C9.52998 0.5 6.70312 6.09651 6.70312 13C6.70312 19.9035 9.52998 25.5 13.0168 25.5Z" stroke="#0A1B36"/>
<path d="M13.0112 25.5C18.7958 25.5 23.4853 19.9035 23.4853 13C23.4853 6.09651 18.7958 0.5 13.0112 0.5C7.22658 0.5 2.53711 6.09651 2.53711 13C2.53711 19.9035 7.22658 25.5 13.0112 25.5Z" stroke="#0A1B36"/>
<path d="M13.0507 25.5C14.1623 25.5 15.0634 19.9035 15.0634 13C15.0634 6.09651 14.1623 0.5 13.0507 0.5C11.9392 0.5 11.0381 6.09651 11.0381 13C11.0381 19.9035 11.9392 25.5 13.0507 25.5Z" stroke="#0A1B36"/>
<path d="M0.5 12.8132C0.5 14.545 6.09651 15.9486 13 15.9486C19.9035 15.9486 25.5 14.545 25.5 12.8132C25.5 11.0814 19.9035 9.67773 13 9.67773C6.09651 9.67773 0.5 11.0814 0.5 12.8132Z" stroke="#0A1B36"/>
<path d="M25.5 13C25.5 13 19.9035 13 13 13C6.09651 13 0.5 13 0.5 13" stroke="#0A1B36"/>
</svg>
