<svg width="25" height="26" viewBox="0 0 25 26" fill="none" xmlns="http://www.w3.org/2000/svg">
<path d="M1.80251 25.5C0.705328 25.5 0 24.6406 0 23.8594C0 21.75 2.82131 19.9531 6.50471 18.7031C8.07209 15.9688 9.56115 12.5313 10.5799 9.40627C9.71787 7.14064 9.16926 5.03122 9.16926 3.54688C9.16926 2.6875 9.32602 1.98438 9.63951 1.51562C10.0313 0.890625 10.6583 0.5 11.3637 0.5C12.069 0.5 12.6175 0.890625 12.931 1.51562C13.1661 1.98438 13.3229 2.60938 13.3229 3.46875C13.3229 4.95314 12.931 7.0625 12.1473 9.48436C13.1661 12.0625 14.7335 14.7188 16.5361 16.6719C19.3574 16.4375 21.6301 16.5156 23.0408 16.9844C24.6081 17.5312 25 18.3906 25 19.0938C25 19.7969 24.6865 21.3594 22.1004 21.3594C19.906 21.3594 17.79 20.1094 15.9875 18.3125C13.0878 18.625 10.1097 19.25 7.60189 20.1094C5.72099 23.1562 3.68339 25.5 1.80251 25.5ZM1.5674 23.8594C1.5674 23.8594 1.64576 23.9375 1.80251 23.9375C2.66458 23.9375 3.84013 22.7656 5.09406 20.9688C2.97806 21.9062 1.5674 22.9219 1.5674 23.8594ZM18.1817 18.0781C19.4357 19.0938 20.768 19.7188 22.1787 19.7188C23.511 19.7188 23.511 19.25 23.511 19.0156C23.511 18.7031 22.884 18.4688 22.6489 18.3906C21.8653 18.1562 20.768 18 19.3574 18C18.9655 18.0781 18.5736 18.0781 18.1817 18.0781ZM11.5204 11.5938C10.7367 13.7812 9.79622 16.0469 8.69906 18.0781C10.6583 17.5312 12.7743 17.1406 14.7335 16.9062C13.4796 15.2656 12.3825 13.3906 11.5204 11.5938ZM11.3637 2.0625C11.2069 2.0625 11.1285 2.0625 10.9718 2.29688C10.8934 2.45312 10.7367 2.84375 10.7367 3.54688C10.7367 4.48436 10.8934 5.57814 11.2853 6.82814C11.5987 5.5 11.7555 4.32812 11.7555 3.39062C11.7555 2.6875 11.5987 2.29688 11.5987 2.14062C11.5204 2.0625 11.442 2.0625 11.3637 2.0625Z" fill="#0A1B36"/>
</svg>
