<svg width="17" height="18"   xmlns="http://www.w3.org/2000/svg">
<path d="M12.2677 1.66146H4.7322C3.0546 1.66146 1.68227 2.99206 1.68227 4.61849V9.83712C1.68227 11.4633 3.05487 12.7942 4.7322 12.7942H7.10175C6.76276 14.0944 6.35219 15.2628 5.09792 16.3412C7.4962 15.7465 9.3476 14.5443 10.7064 12.7942H11.1161C12.7933 12.7942 15.3179 11.4636 15.3179 9.83712V4.61849C15.3176 2.99206 13.9453 1.66146 12.2677 1.66146ZM11.896 6.34753C11.2848 6.34753 10.7894 6.82813 10.7894 7.42071C10.7894 8.01329 11.2848 8.49389 11.896 8.49389C12.5075 8.49389 13.003 8.01329 13.003 7.42071C13.003 6.82813 12.5075 6.34753 11.896 6.34753ZM5.10383 6.34753C4.49247 6.34753 3.99688 6.82813 3.99688 7.42071C3.99688 8.01329 4.49247 8.49389 5.10383 8.49389C5.71505 8.49389 6.21077 8.01329 6.21077 7.42071C6.21077 6.82813 5.71505 6.34753 5.10383 6.34753ZM8.5 6.34753C7.88878 6.34753 7.39306 6.82813 7.39306 7.42071C7.39306 8.01329 7.88878 8.49389 8.5 8.49389C9.11136 8.49389 9.60681 8.01329 9.60681 7.42071C9.60681 6.82813 9.11136 6.34753 8.5 6.34753ZM4.7322 1H12.2678H12.2686V1.0026C13.2971 1.00286 14.23 1.40872 14.9041 2.06237L14.9027 2.06367C15.5779 2.71901 15.997 3.62318 15.9973 4.6181H16V4.61849H15.9973V9.83712H16V9.83764H15.9973C15.9968 10.9014 15.2345 11.8284 14.2191 12.4758C13.2735 13.0785 12.0794 13.4529 11.1161 13.453V13.4557H11.1159V13.453H11.0385C10.3584 14.2745 9.56907 14.9757 8.66479 15.5513C7.66516 16.1878 6.53418 16.6673 5.26553 16.9819L5.26499 16.9798C5.0262 17.0384 4.76309 16.9688 4.58863 16.7778C4.3399 16.5052 4.36622 16.0887 4.64732 15.8475C5.20039 15.3722 5.56718 14.8774 5.8327 14.3587C5.98057 14.0698 6.09943 13.7684 6.20271 13.4554H4.73207H4.73113V13.4526C3.70289 13.4524 2.77001 13.0465 2.0958 12.3929C1.42145 11.7393 1.00282 10.8347 1.00269 9.83738H1V9.83699H1.00269V4.61849H1V4.61758H1.00269C1.00282 3.64089 1.406 2.75261 2.05806 2.10208C2.07001 2.08854 2.08236 2.07526 2.09553 2.0625C2.76987 1.40872 3.70289 1.0026 4.73167 1.00247V1H4.7322Z"  stroke="#0A1B36" stroke-width="0.5"/>
</svg>
