<svg width="16" height="8" viewBox="0 0 16 8"  xmlns="http://www.w3.org/2000/svg">
<path d="M15.2099 0.541758C15.3155 0.229205 15.2099 0 14.7107 0H13.057C12.6362 0 12.4439 0.198288 12.3383 0.416067C12.3383 0.416067 11.4975 2.24365 10.306 3.42867C9.9214 3.77348 9.74567 3.88237 9.53607 3.88237C9.43127 3.88237 9.27891 3.77348 9.27891 3.46093V0.541758C9.27891 0.166695 9.1575 0 8.80684 0H6.20819C5.94576 0 5.7874 0.173415 5.7874 0.338765C5.7874 0.693664 6.38315 0.77567 6.44423 1.77584V3.94556C6.44423 4.42077 6.34846 4.50748 6.13731 4.50748C5.57701 4.50748 4.21358 2.67316 3.40442 0.573349C3.24681 0.16535 3.0877 0.000671387 2.6654 0.000671387H1.01241C0.539581 0.000671387 0.445312 0.198959 0.445312 0.416738C0.445312 0.807932 1.00561 2.74374 3.05528 5.30398C4.42171 7.05226 6.34544 8 8.09798 8C9.14845 8 9.27817 7.78962 9.27817 7.42665V6.10519C9.27817 5.68443 9.37847 5.59973 9.711 5.59973C9.95536 5.59973 10.3762 5.70996 11.3572 6.55218C12.4778 7.551 12.6634 7.99932 13.293 7.99932H14.946C15.4181 7.99932 15.6541 7.78894 15.5184 7.37355C15.3698 6.96018 14.8344 6.3586 14.1241 5.64678C13.7379 5.2408 13.161 4.8039 12.9853 4.58545C12.7402 4.30381 12.8112 4.17947 12.9853 3.92942C12.9853 3.92942 15.0003 1.40145 15.2099 0.541758Z" />
</svg>
