<svg width="16" height="10" viewBox="0 0 16 10" xmlns="http://www.w3.org/2000/svg">
<path d="M7.86546 10C6.27943 9.99069 4.40071 9.97021 2.94754 9.79052C1.43862 9.60525 1.05303 8.68168 0.974982 7.1632C0.932242 6.33646 0.899723 5.69686 0.90251 5.00046C0.899723 4.30313 0.932242 3.66353 0.974982 2.83679C1.05303 1.31831 1.43862 0.395676 2.94754 0.211341C4.39978 0.0316553 6.27943 0.00837913 7.86546 0.00186205V0C7.91006 0.000931011 7.95373 0.000930112 7.99926 0.000930112C8.04478 0.000930112 8.09031 0.000931011 8.13492 0V0.00186205C9.72095 0.00837913 11.5987 0.0307243 13.0528 0.211341C14.5608 0.395676 14.9473 1.31831 15.0254 2.83679C15.0691 3.66446 15.1016 4.30313 15.0978 5.00046C15.1016 5.69686 15.0691 6.33739 15.0254 7.1632C14.9473 8.68168 14.5608 9.60525 13.0528 9.79052C11.5987 9.96928 9.72095 9.99069 8.13492 10C8.09031 10 8.04478 10 7.99926 10C7.95373 10 7.91006 10 7.86546 10ZM6.57396 7.11479L10.2431 4.98836L6.57396 2.86286V7.11479Z" />
</svg>
