<svg width="50" height="50" viewBox="0 0 50 50"  xmlns="http://www.w3.org/2000/svg">
<path d="M0.5 0.5H22.4508V4.41808H0.5V0.5ZM0.5 9.51633H22.4508V13.4343H0.5V9.51633ZM22.4508 22.4507H0.5V18.5327H22.4508V22.4507ZM45.5819 0.5H49.5V22.4508H45.5819V0.5ZM36.5655 0.5H40.4835V22.4508H36.5655V0.5ZM31.4672 22.4507H27.5492V0.5H31.4672V22.4507ZM27.5492 45.5819H49.5V49.5H27.5492V45.5819ZM27.5492 36.5655H49.5V40.4835H27.5492V36.5655ZM43.0329 27.5492H49.5001V31.4671H27.5492V27.5492H43.0329ZM0.5 27.5492H4.41808V49.5H0.5V27.5492ZM9.51642 27.5492H13.4344V49.5H9.51642V27.5492ZM22.4508 49.4999H18.5328V27.5492H22.4508V49.4999Z" />
</svg>
