<svg width="50" height="50" viewBox="0 0 50 50"  xmlns="http://www.w3.org/2000/svg">
<path d="M22.2235 8.42404L0.5 30.0548V19.0347L16.7108 2.82471L22.2235 8.42404ZM11.2022 24.9997L16.7091 19.4928L30.501 33.2848L24.9942 38.7915L11.2022 24.9997ZM2.82471 33.2892L8.42404 27.7765L30.0548 49.5H19.0348L2.82471 33.2892ZM47.1757 16.7115L41.5764 22.2239L19.9452 0.5H30.9655L47.1757 16.7115ZM33.2806 30.5073L19.4885 16.7153L24.9953 11.2085L38.7874 25.0005L33.2806 30.5073ZM49.5 19.946V30.9641L33.289 47.1751L27.7765 41.576L49.5 19.946ZM36.5211 49.5L49.5 36.5211V49.5H36.5211ZM13.4779 49.5H0.5V36.5213L13.4779 49.5ZM49.5 13.4788L36.5223 0.5H49.5V13.4788ZM13.4785 0.5L0.5 13.4779V0.5H13.4785Z" />
</svg>
