<svg width="50" height="50" viewBox="0 0 50 50"  xmlns="http://www.w3.org/2000/svg">
<mask id="path-1-inside-1_133_1462">
<path d="M26.3402 22.6846H23.6617C23.1223 22.6846 22.6851 23.1218 22.6851 23.6611V26.3396C22.6851 26.8789 23.1223 27.3161 23.6617 27.3161H26.3402C26.8795 27.3161 27.3167 26.8789 27.3167 26.3396V23.6611C27.3167 23.1219 26.8795 22.6846 26.3402 22.6846ZM18.7788 7.56221H16.1003C15.5609 7.56221 15.1237 7.99941 15.1237 8.53877V11.2172C15.1237 11.7565 15.5609 12.1937 16.1003 12.1937H18.7788C19.3182 12.1937 19.7554 11.7565 19.7554 11.2172V8.53877C19.7554 7.99941 19.3182 7.56221 18.7788 7.56221ZM21.2222 42.4386H26.3402C26.8795 42.4386 27.3167 42.0014 27.3167 41.462V31.2224C27.3167 30.683 26.8795 30.2458 26.3402 30.2458H16.1003C15.5609 30.2458 15.1237 30.683 15.1237 31.2224V41.4619C15.1237 42.0013 15.5609 42.4385 16.1003 42.4385H21.2203L21.2222 42.4386ZM33.9016 37.807H31.223C30.6837 37.807 30.2464 38.2442 30.2464 38.7836V41.462C30.2464 42.0014 30.6837 42.4386 31.223 42.4386H33.9016C34.4409 42.4386 34.8781 42.0014 34.8781 41.462V38.7836C34.8781 38.2442 34.4409 37.807 33.9016 37.807ZM33.9016 19.7549C34.4409 19.7549 34.8781 19.3177 34.8781 18.7783V8.53877C34.8781 7.99941 34.4409 7.56221 33.9016 7.56221H23.6617C23.1223 7.56221 22.6851 7.99941 22.6851 8.53877V18.7784C22.6851 19.3178 23.1223 19.755 23.6617 19.755H33.9016V19.7549ZM18.7788 27.3161C19.3182 27.3161 19.7554 26.8789 19.7554 26.3396V16.0999C19.7554 15.5605 19.3182 15.1233 18.7788 15.1233H8.53906C7.9997 15.1233 7.56249 15.5605 7.56249 16.0999V26.3395C7.56249 26.8788 7.9997 27.316 8.53906 27.316H18.7788V27.3161ZM46.3459 34.8773H49.0234C49.5628 34.8773 50 34.4401 50 33.9008V31.2224C50 30.683 49.5628 30.2458 49.0234 30.2458H46.3459C45.8065 30.2458 45.3693 30.683 45.3693 31.2224V33.9008C45.3693 34.4401 45.8065 34.8773 46.3459 34.8773ZM8.53906 34.8773H11.2175C11.7569 34.8773 12.1941 34.4401 12.1941 33.9008V31.2224C12.1941 30.683 11.7569 30.2458 11.2175 30.2458H8.53906C7.9997 30.2458 7.56249 30.683 7.56249 31.2224V33.9008C7.56249 34.4401 7.9997 34.8773 8.53906 34.8773ZM46.3459 15.1234C45.8065 15.1234 45.3693 15.5606 45.3693 16.1V26.3396C45.3693 26.879 45.8065 27.3162 46.3459 27.3162H49.0234C49.5628 27.3162 50 26.879 50 26.3396V16.1C50 15.5606 49.5628 15.1234 49.0234 15.1234H46.3459ZM37.8079 11.2172C37.8079 11.7565 38.2451 12.1937 38.7844 12.1937H49.0234C49.5628 12.1937 50 11.7565 50 11.2172V0.976562C50 0.437207 49.5628 0 49.0234 0H38.7844C38.2451 0 37.8079 0.437207 37.8079 0.976562V11.2172ZM41.463 34.8773C42.0023 34.8773 42.4396 34.4401 42.4396 33.9008V23.6611C42.4396 23.1218 42.0023 22.6846 41.463 22.6846H31.223C30.6837 22.6846 30.2464 23.1218 30.2464 23.6611V33.9008C30.2464 34.4401 30.6837 34.8773 31.223 34.8773H41.463ZM3.65532 15.1234H0.976574C0.437212 15.1234 0 15.5606 0 16.1V18.7784C0 19.3178 0.437212 19.755 0.976574 19.755H3.65532C4.19468 19.755 4.63189 19.3178 4.63189 18.7784V16.1C4.63189 15.5606 4.19468 15.1234 3.65532 15.1234ZM41.463 15.1234H38.7844C38.2451 15.1234 37.8079 15.5606 37.8079 16.1V18.7784C37.8079 19.3178 38.2451 19.755 38.7844 19.755H41.463C42.0023 19.755 42.4396 19.3178 42.4396 18.7784V16.1C42.4396 15.5606 42.0023 15.1234 41.463 15.1234ZM15.1238 46.3448V49.0234C15.1238 49.5628 15.561 50 16.1004 50H18.7789C19.3183 50 19.7555 49.5628 19.7555 49.0234V46.3448C19.7555 45.8055 19.3183 45.3683 18.7789 45.3683H16.1004C15.561 45.3683 15.1238 45.8055 15.1238 46.3448ZM50 38.7836C50 38.2442 49.5628 37.807 49.0234 37.807H38.7844C38.2451 37.807 37.8079 38.2442 37.8079 38.7836V49.0234C37.8079 49.5628 38.2451 50 38.7844 50H49.0234C49.5628 50 50 49.5628 50 49.0234V38.7836ZM22.6851 46.345V49.0234C22.6851 49.5628 23.1223 50 23.6617 50H33.9016C34.4409 50 34.8781 49.5628 34.8781 49.0234V46.345C34.8781 45.8057 34.4409 45.3685 33.9016 45.3685H23.6617C23.1223 45.3685 22.6851 45.8057 22.6851 46.345ZM0 38.7839V49.0234C0 49.5628 0.437212 50 0.976574 50H11.2166C11.756 50 12.1932 49.5628 12.1932 49.0234V38.7839C12.1932 38.2445 11.756 37.8073 11.2166 37.8073H0.976574C0.43731 37.8073 0 38.2445 0 38.7839ZM3.65493 22.6846H0.976574C0.437212 22.6846 0 23.1218 0 23.6611V33.9008C0 34.4401 0.437212 34.8773 0.976574 34.8773H3.65493C4.19429 34.8773 4.6315 34.4401 4.6315 33.9008V23.6611C4.6315 23.1219 4.19429 22.6846 3.65493 22.6846ZM21.2203 4.63252H26.3402C26.8795 4.63252 27.3167 4.19531 27.3167 3.65596V0.976562C27.3167 0.437207 26.8795 0 26.3402 0H16.1004C15.561 0 15.1238 0.437207 15.1238 0.976562V3.65596C15.1238 4.19531 15.561 4.63252 16.1004 4.63252H21.2203ZM34.8781 3.65596V0.976562C34.8781 0.437207 34.4409 0 33.9016 0H31.223C30.6837 0 30.2464 0.437207 30.2464 0.976562V3.65596C30.2464 4.19531 30.6837 4.63252 31.223 4.63252H33.9016C34.4409 4.63252 34.8781 4.19531 34.8781 3.65596ZM0 11.2172C0 11.7565 0.437212 12.1937 0.976574 12.1937H11.2166C11.756 12.1937 12.1932 11.7565 12.1932 11.2172V0.976562C12.1932 0.437207 11.756 0 11.2166 0H0.976574C0.437212 0 0 0.437207 0 0.976562V11.2172Z"/>
</mask>
<path d="M26.3402 22.6846H23.6617C23.1223 22.6846 22.6851 23.1218 22.6851 23.6611V26.3396C22.6851 26.8789 23.1223 27.3161 23.6617 27.3161H26.3402C26.8795 27.3161 27.3167 26.8789 27.3167 26.3396V23.6611C27.3167 23.1219 26.8795 22.6846 26.3402 22.6846ZM18.7788 7.56221H16.1003C15.5609 7.56221 15.1237 7.99941 15.1237 8.53877V11.2172C15.1237 11.7565 15.5609 12.1937 16.1003 12.1937H18.7788C19.3182 12.1937 19.7554 11.7565 19.7554 11.2172V8.53877C19.7554 7.99941 19.3182 7.56221 18.7788 7.56221ZM21.2222 42.4386H26.3402C26.8795 42.4386 27.3167 42.0014 27.3167 41.462V31.2224C27.3167 30.683 26.8795 30.2458 26.3402 30.2458H16.1003C15.5609 30.2458 15.1237 30.683 15.1237 31.2224V41.4619C15.1237 42.0013 15.5609 42.4385 16.1003 42.4385H21.2203L21.2222 42.4386ZM33.9016 37.807H31.223C30.6837 37.807 30.2464 38.2442 30.2464 38.7836V41.462C30.2464 42.0014 30.6837 42.4386 31.223 42.4386H33.9016C34.4409 42.4386 34.8781 42.0014 34.8781 41.462V38.7836C34.8781 38.2442 34.4409 37.807 33.9016 37.807ZM33.9016 19.7549C34.4409 19.7549 34.8781 19.3177 34.8781 18.7783V8.53877C34.8781 7.99941 34.4409 7.56221 33.9016 7.56221H23.6617C23.1223 7.56221 22.6851 7.99941 22.6851 8.53877V18.7784C22.6851 19.3178 23.1223 19.755 23.6617 19.755H33.9016V19.7549ZM18.7788 27.3161C19.3182 27.3161 19.7554 26.8789 19.7554 26.3396V16.0999C19.7554 15.5605 19.3182 15.1233 18.7788 15.1233H8.53906C7.9997 15.1233 7.56249 15.5605 7.56249 16.0999V26.3395C7.56249 26.8788 7.9997 27.316 8.53906 27.316H18.7788V27.3161ZM46.3459 34.8773H49.0234C49.5628 34.8773 50 34.4401 50 33.9008V31.2224C50 30.683 49.5628 30.2458 49.0234 30.2458H46.3459C45.8065 30.2458 45.3693 30.683 45.3693 31.2224V33.9008C45.3693 34.4401 45.8065 34.8773 46.3459 34.8773ZM8.53906 34.8773H11.2175C11.7569 34.8773 12.1941 34.4401 12.1941 33.9008V31.2224C12.1941 30.683 11.7569 30.2458 11.2175 30.2458H8.53906C7.9997 30.2458 7.56249 30.683 7.56249 31.2224V33.9008C7.56249 34.4401 7.9997 34.8773 8.53906 34.8773ZM46.3459 15.1234C45.8065 15.1234 45.3693 15.5606 45.3693 16.1V26.3396C45.3693 26.879 45.8065 27.3162 46.3459 27.3162H49.0234C49.5628 27.3162 50 26.879 50 26.3396V16.1C50 15.5606 49.5628 15.1234 49.0234 15.1234H46.3459ZM37.8079 11.2172C37.8079 11.7565 38.2451 12.1937 38.7844 12.1937H49.0234C49.5628 12.1937 50 11.7565 50 11.2172V0.976562C50 0.437207 49.5628 0 49.0234 0H38.7844C38.2451 0 37.8079 0.437207 37.8079 0.976562V11.2172ZM41.463 34.8773C42.0023 34.8773 42.4396 34.4401 42.4396 33.9008V23.6611C42.4396 23.1218 42.0023 22.6846 41.463 22.6846H31.223C30.6837 22.6846 30.2464 23.1218 30.2464 23.6611V33.9008C30.2464 34.4401 30.6837 34.8773 31.223 34.8773H41.463ZM3.65532 15.1234H0.976574C0.437212 15.1234 0 15.5606 0 16.1V18.7784C0 19.3178 0.437212 19.755 0.976574 19.755H3.65532C4.19468 19.755 4.63189 19.3178 4.63189 18.7784V16.1C4.63189 15.5606 4.19468 15.1234 3.65532 15.1234ZM41.463 15.1234H38.7844C38.2451 15.1234 37.8079 15.5606 37.8079 16.1V18.7784C37.8079 19.3178 38.2451 19.755 38.7844 19.755H41.463C42.0023 19.755 42.4396 19.3178 42.4396 18.7784V16.1C42.4396 15.5606 42.0023 15.1234 41.463 15.1234ZM15.1238 46.3448V49.0234C15.1238 49.5628 15.561 50 16.1004 50H18.7789C19.3183 50 19.7555 49.5628 19.7555 49.0234V46.3448C19.7555 45.8055 19.3183 45.3683 18.7789 45.3683H16.1004C15.561 45.3683 15.1238 45.8055 15.1238 46.3448ZM50 38.7836C50 38.2442 49.5628 37.807 49.0234 37.807H38.7844C38.2451 37.807 37.8079 38.2442 37.8079 38.7836V49.0234C37.8079 49.5628 38.2451 50 38.7844 50H49.0234C49.5628 50 50 49.5628 50 49.0234V38.7836ZM22.6851 46.345V49.0234C22.6851 49.5628 23.1223 50 23.6617 50H33.9016C34.4409 50 34.8781 49.5628 34.8781 49.0234V46.345C34.8781 45.8057 34.4409 45.3685 33.9016 45.3685H23.6617C23.1223 45.3685 22.6851 45.8057 22.6851 46.345ZM0 38.7839V49.0234C0 49.5628 0.437212 50 0.976574 50H11.2166C11.756 50 12.1932 49.5628 12.1932 49.0234V38.7839C12.1932 38.2445 11.756 37.8073 11.2166 37.8073H0.976574C0.43731 37.8073 0 38.2445 0 38.7839ZM3.65493 22.6846H0.976574C0.437212 22.6846 0 23.1218 0 23.6611V33.9008C0 34.4401 0.437212 34.8773 0.976574 34.8773H3.65493C4.19429 34.8773 4.6315 34.4401 4.6315 33.9008V23.6611C4.6315 23.1219 4.19429 22.6846 3.65493 22.6846ZM21.2203 4.63252H26.3402C26.8795 4.63252 27.3167 4.19531 27.3167 3.65596V0.976562C27.3167 0.437207 26.8795 0 26.3402 0H16.1004C15.561 0 15.1238 0.437207 15.1238 0.976562V3.65596C15.1238 4.19531 15.561 4.63252 16.1004 4.63252H21.2203ZM34.8781 3.65596V0.976562C34.8781 0.437207 34.4409 0 33.9016 0H31.223C30.6837 0 30.2464 0.437207 30.2464 0.976562V3.65596C30.2464 4.19531 30.6837 4.63252 31.223 4.63252H33.9016C34.4409 4.63252 34.8781 4.19531 34.8781 3.65596ZM0 11.2172C0 11.7565 0.437212 12.1937 0.976574 12.1937H11.2166C11.756 12.1937 12.1932 11.7565 12.1932 11.2172V0.976562C12.1932 0.437207 11.756 0 11.2166 0H0.976574C0.437212 0 0 0.437207 0 0.976562V11.2172Z" stroke-width="2" mask="url(#path-1-inside-1_133_1462)"/>
</svg>
