<svg width="50" height="50" viewBox="0 0 50 50" xmlns="http://www.w3.org/2000/svg">
<path d="M49.0895 0.500075L49.0947 0.500021C49.1463 0.499484 49.1977 0.509483 49.2462 0.52978C49.2946 0.550088 49.3396 0.58048 49.3779 0.619849L49.736 0.270893L49.3779 0.619857C49.4163 0.659257 49.4473 0.706832 49.4685 0.760122L49.9327 0.575457L49.4686 0.760135C49.4898 0.813455 49.5006 0.871017 49.5 0.929331V0.934276V4.59882C49.4958 4.603 49.4916 4.6072 49.4875 4.61142L49.4871 4.61188L49.5 4.62444V4.62489C49.4868 4.61218 49.4867 4.61228 49.4866 4.61239L49.4851 4.61393L49.4791 4.62007L49.4553 4.64447L49.3614 4.74087L48.995 5.11687L47.6046 6.5441L42.6413 11.6388C38.5336 15.8553 33.0563 21.4783 27.5779 27.1035C22.0995 32.7287 16.6199 38.3563 12.5076 42.5824C10.4514 44.6953 8.73702 46.458 7.53548 47.6948C6.93475 48.3132 6.46204 48.8003 6.13888 49.134C5.98781 49.29 5.86913 49.4128 5.78524 49.5L0.91046 49.4999L0.905258 49.5C0.853714 49.5005 0.80228 49.4905 0.753839 49.4702L0.560797 49.931L0.753825 49.4702C0.705354 49.4499 0.660442 49.4195 0.622077 49.3801C0.583681 49.3407 0.552654 49.2932 0.531447 49.2399C0.51023 49.1865 0.499445 49.129 0.500022 49.0707H0.500046V49.0657V43.9916L0.846308 43.6372C1.16172 43.3142 1.62266 42.8419 2.20831 42.2416C3.37962 41.0411 5.0499 39.3286 7.05267 37.275C11.0582 33.1677 16.3938 27.6957 21.7277 22.2252C27.0616 16.7547 32.3938 11.2857 36.3925 7.18428L41.224 2.22866L42.5775 0.840324L42.9093 0.500048L49.0895 0.500075ZM49.0947 49.5H49.0895H38.8586L39.8059 48.5282L43.7913 44.4394C45.9897 42.1838 48.2633 39.8508 49.5 38.5811L49.4999 49.0657L49.5 49.0707C49.5006 49.129 49.4898 49.1865 49.4686 49.2399L49.9331 49.4247L49.4685 49.2399C49.4473 49.2932 49.4163 49.3407 49.3779 49.3801L49.736 49.7291L49.3779 49.3801C49.3396 49.4195 49.2946 49.4499 49.2462 49.4702L49.4394 49.9314L49.2462 49.4702C49.1977 49.4905 49.1463 49.5005 49.0947 49.5ZM0.905251 0.500021L0.905251 0.500048H0.91046H9.79409L9.06835 1.24465L5.56467 4.83954C3.64536 6.80889 1.64726 8.85921 0.500046 10.0368V0.934276H0.500071L0.500022 0.929329C0.499445 0.871018 0.510231 0.813455 0.531446 0.760132C0.552654 0.70683 0.583681 0.659251 0.622075 0.619853C0.660442 0.580483 0.705356 0.550089 0.753833 0.529779C0.802277 0.509483 0.853711 0.499484 0.905251 0.500021ZM34.9441 49.4708C34.9344 49.4809 34.9251 49.4906 34.9162 49.5H24.2917L49.5 23.6323V34.519C49.4897 34.5294 49.479 34.5403 49.4679 34.5516C49.3562 34.6652 49.1943 34.8304 48.9896 35.0396C48.58 35.4582 47.998 36.054 47.3012 36.768C45.9076 38.1961 44.0542 40.0974 42.2014 41.9998C40.3486 43.9022 38.4963 45.8058 37.1049 47.2387C36.4092 47.955 35.8284 48.554 35.4204 48.9762C35.2164 49.1873 35.0551 49.3547 34.9441 49.4708ZM20.5426 49.3013C20.4665 49.3801 20.4024 49.4466 20.3511 49.5H9.72513L49.5 8.68469V19.5722C49.4478 19.6253 49.3821 19.6924 49.3035 19.7726C49.0854 19.9955 48.7672 20.321 48.3633 20.7346C47.5556 21.5618 46.4046 22.7414 45.0251 24.1561C42.2659 26.9854 38.5917 30.7551 34.9181 34.5259C31.2446 38.2967 27.5716 42.0687 24.8146 44.9028C23.4361 46.3198 22.2865 47.5024 21.4804 48.3332C21.0774 48.7486 20.7599 49.0762 20.5426 49.3013ZM28.3428 0.500048H38.9275L0.500046 39.9327V29.0442L0.662904 28.8778C0.859043 28.6771 1.14526 28.3841 1.50912 28.0115C2.23686 27.2661 3.27545 26.2019 4.52575 24.9205C7.02636 22.3576 10.3739 18.9257 13.7755 15.4381C20.2882 8.7608 26.9991 1.87886 28.3428 0.500048ZM13.776 0.500048H24.3608L0.500046 24.985V14.0959C4.92877 9.56742 9.3541 5.03548 13.776 0.500048Z" />
</svg>
