<svg width="42" height="65" viewBox="0 0 42 65"  xmlns="http://www.w3.org/2000/svg">
<mask id="mask0_99_12306" style="mask-type:luminance" maskUnits="userSpaceOnUse" x="0" y="0" width="42" height="65">
<path d="M41.8644 0H0V65H41.8644V0Z" />
</mask>
<g mask="url(#mask0_99_12306)">
<path d="M6.61035 0.550781H13.2205" />
<path d="M41.3135 2.20361H0.550781V5.5087H41.3135V2.20361Z" />
<path d="M3.30482 6.61035H2.20312V14.3222H3.30482V6.61035Z" />
<path d="M39.6613 6.61035H38.5596V14.3222H39.6613V6.61035Z" />
<path d="M41.3135 15.4238H0.550781V17.6272H41.3135V15.4238Z" />
<path d="M3.30482 18.729H2.20312V47.3731H3.30482V18.729Z" />
<path d="M39.6613 18.729H38.5596V47.3731H39.6613V18.729Z" />
<path d="M41.3135 48.4746H0.550781V50.678H41.3135V48.4746Z" />
<path d="M3.30482 51.7798H2.20312V59.4916H3.30482V51.7798Z" />
<path d="M39.6613 51.7798H38.5596V59.4916H39.6613V51.7798Z" />
<path d="M41.3135 60.5933H0.550781V63.8983H41.3135V60.5933Z" />
<path d="M20.9533 37.4577H20.9101C19.0998 37.4577 17.627 36.0162 17.627 34.2443C17.627 32.9953 18.5167 31.6896 19.3774 30.4272C19.8897 29.675 20.3739 28.9647 20.6376 28.3181L20.9536 27.5425L21.2697 28.3181C21.532 28.9614 22.0053 29.6667 22.5068 30.4136C23.3573 31.6809 24.2371 32.9916 24.2371 34.2443C24.2365 36.0162 22.7636 37.4577 20.9533 37.4577ZM20.9526 29.2185C20.6719 29.7269 20.3148 30.2514 19.9428 30.7966C19.1389 31.9767 18.307 33.1967 18.307 34.2443C18.307 35.6492 19.4747 36.7918 20.9098 36.7918H20.953C22.3884 36.7918 23.5556 35.6489 23.5556 34.2443C23.5556 33.1908 22.7326 31.9647 21.9369 30.7792C21.5755 30.2398 21.2278 29.7213 20.9526 29.2185ZM20.0487 35.9585C20.1599 35.8104 20.1272 35.6019 19.9759 35.4934C19.5703 35.2017 19.3281 34.7348 19.3281 34.2443C19.3281 33.8447 19.5642 33.266 20.0504 32.4761C20.1473 32.3187 20.0956 32.1142 19.9343 32.0192C19.7734 31.9237 19.5642 31.9749 19.4676 32.1328C18.9004 33.0543 18.6477 33.7056 18.6477 34.2443C18.6477 34.9457 18.9936 35.6133 19.5733 36.0298C19.6339 36.0735 19.7046 36.0945 19.7745 36.0945C19.8789 36.0945 19.9819 36.0471 20.0487 35.9585Z" />
</g>
</svg>
