<svg width="20" height="20" viewBox="0 0 20 20"  xmlns="http://www.w3.org/2000/svg">
<path d="M19.3892 7.29704L10.2269 11.8527C10.1444 11.8936 10.0537 11.9148 9.96166 11.9148C9.86965 11.9148 9.77889 11.8936 9.69645 11.8527L0.510238 7.28589C0.412524 7.23718 0.329895 7.16281 0.271192 7.07075C0.212489 6.9787 0.179922 6.87241 0.176977 6.76327C0.174032 6.65412 0.200818 6.54623 0.254471 6.45114C0.308123 6.35605 0.386622 6.27734 0.481566 6.22343L9.66778 1.07839C9.75835 1.02701 9.86071 1 9.96485 1C10.069 1 10.1713 1.02701 10.2619 1.07839L19.4497 6.22343C19.5471 6.27807 19.6273 6.35876 19.6813 6.45646C19.7354 6.55416 19.7611 6.66499 19.7557 6.7765C19.7502 6.88801 19.7138 6.9958 19.6504 7.08775C19.5871 7.1797 19.4994 7.25218 19.3972 7.29704H19.3892ZM17.8329 13.8167C17.6933 13.7407 17.5896 13.6123 17.5447 13.4598C17.4997 13.3073 17.5172 13.1432 17.5932 13.0036C17.6693 12.864 17.7976 12.7603 17.9501 12.7153C18.1026 12.6703 18.2668 12.6878 18.4064 12.7638L19.4274 13.3022C19.5683 13.3764 19.6739 13.5035 19.7211 13.6555C19.7683 13.8076 19.7532 13.9721 19.6791 14.113C19.6184 14.2305 19.5211 14.325 19.4019 14.3822L10.2269 18.9379C10.1444 18.9787 10.0537 19 9.96166 19C9.86965 19 9.77889 18.9787 9.69645 18.9379L0.510238 14.3711C0.3695 14.3005 0.262096 14.1775 0.211151 14.0286C0.160206 13.8796 0.169795 13.7166 0.237853 13.5746C0.29139 13.4583 0.381439 13.3627 0.494309 13.3022L1.45004 12.8021C1.58377 12.7293 1.74021 12.7101 1.88755 12.7485C2.03488 12.7869 2.16206 12.88 2.24322 13.0089C2.32437 13.1377 2.35341 13.2926 2.32443 13.4421C2.29545 13.5916 2.21062 13.7244 2.0872 13.8136L9.96246 17.7273L17.8329 13.8136V13.8167ZM17.8568 10.1913C17.7575 10.0902 17.6973 9.95722 17.6868 9.8159C17.6763 9.67459 17.7162 9.53413 17.7995 9.41949C17.8828 9.30486 18.0041 9.22347 18.1417 9.1898C18.2794 9.15613 18.4245 9.17235 18.5513 9.23559L19.4258 9.69593C19.5248 9.74778 19.6073 9.82627 19.6639 9.92253C19.7206 10.0188 19.7493 10.129 19.7466 10.2407C19.744 10.3523 19.7101 10.461 19.6489 10.5545C19.5878 10.648 19.5016 10.7224 19.4003 10.7695L10.2269 15.3252C10.1444 15.3661 10.0537 15.3873 9.96166 15.3873C9.86965 15.3873 9.77889 15.3661 9.69645 15.3252L0.510238 10.7584C0.369794 10.6875 0.262659 10.5645 0.211754 10.4157C0.160849 10.2668 0.170217 10.104 0.237853 9.96195C0.291681 9.84584 0.381652 9.75028 0.494309 9.68956L1.43412 9.19417C1.56716 9.11919 1.72378 9.09772 1.8721 9.13413C2.02042 9.17054 2.14929 9.26208 2.2325 9.39014C2.31571 9.51821 2.347 9.67316 2.32001 9.82348C2.29302 9.97379 2.20977 10.1082 2.0872 10.1993L9.96724 14.1178L17.8568 10.1913ZM9.96246 10.6453L17.8568 6.71563L9.96246 2.29058L2.06012 6.71563L9.96246 10.6453Z"  stroke="white" stroke-width="0.1"/>
</svg>
