<svg width="72" height="72" viewBox="0 0 72 72"  xmlns="http://www.w3.org/2000/svg">
<path d="M36 71C55.3298 71 71 55.3298 71 36C71 16.6702 55.3298 1 36 1C16.6702 1 1 16.6702 1 36C1 55.3298 16.6702 71 36 71Z"  stroke-width="2"/>
<path d="M36.0485 71C45.8116 71 53.7279 55.3298 53.7279 36C53.7279 16.6702 45.8116 1 36.0485 1C26.2853 1 18.3701 16.6702 18.3701 36C18.3701 55.3298 26.2853 71 36.0485 71Z"  stroke-width="2"/>
<path d="M36.0287 71C52.2256 71 65.3562 55.3298 65.3562 36C65.3562 16.6702 52.2256 1 36.0287 1C19.8317 1 6.70117 16.6702 6.70117 36C6.70117 55.3298 19.8317 71 36.0287 71Z"  stroke-width="2"/>
<path d="M36.1481 71C39.2605 71 41.7836 55.3298 41.7836 36C41.7836 16.6702 39.2605 1 36.1481 1C33.0358 1 30.5127 16.6702 30.5127 36C30.5127 55.3298 33.0358 71 36.1481 71Z"  stroke-width="2"/>
<path d="M0.999997 35.4755C0.999997 40.3246 16.6702 44.2548 36 44.2548C55.3298 44.2548 71 40.3246 71 35.4755C71 30.6264 55.3298 26.6963 36 26.6963C16.6702 26.6963 0.999997 30.6264 0.999997 35.4755Z"  stroke-width="2"/>
<path d="M71 36C71 36 55.3298 36 36 36C16.6702 36 1 36 1 36"  stroke-width="2"/>
</svg>
