<svg width="26" height="18" xmlns="http://www.w3.org/2000/svg">
<g clip-path="url(#clip0_80_720)">
<path fill-rule="evenodd" clip-rule="evenodd" d="M7.46738 5.93021H6.44638C6.39238 5.93106 6.33911 5.94284 6.28978 5.96484C6.24046 5.98684 6.1961 6.0186 6.15938 6.05821C6.12197 6.09236 6.0918 6.13368 6.07067 6.17972C6.04954 6.22576 6.03788 6.27557 6.03638 6.32621V13.7742C6.03618 13.8269 6.04703 13.879 6.06821 13.9272C6.0894 13.9755 6.12046 14.0187 6.15938 14.0542C6.19639 14.0929 6.24098 14.1235 6.29036 14.1441C6.33975 14.1648 6.39286 14.175 6.44638 14.1742H7.46738C7.51878 14.1737 7.56953 14.1628 7.61662 14.1421C7.6637 14.1215 7.70613 14.0916 7.74138 14.0542C7.78303 14.0205 7.81646 13.9778 7.83916 13.9293C7.86186 13.8808 7.87322 13.8278 7.87238 13.7742V6.33021C7.87004 6.27895 7.85721 6.22872 7.83468 6.18262C7.81214 6.13652 7.78039 6.09554 7.74138 6.06221C7.70844 6.02117 7.66673 5.98802 7.61933 5.96518C7.57192 5.94235 7.52 5.93039 7.46738 5.93021ZM16.7804 5.95021H15.9564C15.8495 5.92819 15.7385 5.93806 15.6371 5.97859C15.5358 6.01913 15.4486 6.08854 15.3864 6.17821L13.0334 11.2182H12.9924L10.7504 6.17821C10.7196 6.10701 10.6677 6.04697 10.6017 6.0062C10.5357 5.96543 10.4588 5.94588 10.3814 5.95021H9.27038C9.20823 5.94264 9.14517 5.95159 9.08759 5.97617C9.03 6.00075 8.97991 6.04009 8.94238 6.09021C8.91389 6.13966 8.90069 6.19644 8.90442 6.25339C8.90816 6.31033 8.92868 6.3649 8.96338 6.41021L12.6114 14.1582C12.6449 14.2259 12.698 14.282 12.7638 14.3191C12.8296 14.3562 12.9051 14.3726 12.9804 14.3662H13.0914C13.1633 14.3688 13.2344 14.3505 13.2961 14.3136C13.3579 14.2767 13.4076 14.2227 13.4394 14.1582L17.0874 6.41021C17.1222 6.36496 17.1428 6.31038 17.1465 6.2534C17.1503 6.19642 17.137 6.13962 17.1084 6.09021C17.0701 6.04098 17.0198 6.00231 16.9625 5.97782C16.9051 5.95333 16.8424 5.94383 16.7804 5.95021ZM21.7154 5.76221C20.5801 5.76533 19.4918 6.21608 18.6867 7.01663C17.8817 7.81717 17.4249 8.90292 17.4154 10.0382C17.4093 10.6038 17.5172 11.1648 17.7327 11.6878C17.9481 12.2108 18.2667 12.685 18.6694 13.0822C19.0596 13.4944 19.5311 13.8213 20.0539 14.0423C20.5768 14.2633 21.1398 14.3736 21.7074 14.3662C22.2732 14.3743 22.8344 14.2643 23.3553 14.0432C23.8761 13.8221 24.3452 13.4948 24.7324 13.0822C25.138 12.6868 25.459 12.213 25.6759 11.6898C25.8929 11.1665 26.0012 10.6046 25.9944 10.0382C25.9847 8.90662 25.5307 7.82416 24.7302 7.02425C23.9298 6.22435 22.847 5.77109 21.7154 5.76221ZM23.4984 11.9182C23.2708 12.1622 22.9945 12.3556 22.6873 12.4859C22.3801 12.6161 22.049 12.6803 21.7154 12.6742C21.38 12.6829 21.0466 12.6212 20.7365 12.493C20.4265 12.3649 20.1467 12.1731 19.9154 11.9302C19.6756 11.6791 19.4881 11.383 19.3636 11.0589C19.2392 10.7348 19.1803 10.3892 19.1904 10.0422C19.1814 9.70253 19.241 9.36454 19.3656 9.0484C19.4901 8.73226 19.6771 8.44447 19.9154 8.20221C20.1485 7.96206 20.4287 7.7727 20.7384 7.64604C21.0482 7.51938 21.3808 7.45816 21.7154 7.46621C22.0476 7.4569 22.378 7.51762 22.6852 7.64443C22.9924 7.77123 23.2695 7.96128 23.4984 8.20221C23.7368 8.44433 23.9239 8.7321 24.0485 9.04827C24.1731 9.36444 24.2326 9.7025 24.2234 10.0422C24.2356 10.7382 23.9754 11.4113 23.4984 11.9182ZM3.63438 5.93021H0.728382C0.676339 5.9322 0.625216 5.94455 0.577999 5.96653C0.530782 5.98851 0.488418 6.01967 0.453381 6.05821C0.413795 6.09191 0.381692 6.13352 0.359133 6.18036C0.336573 6.2272 0.324055 6.27824 0.322381 6.33021V7.33021C0.323744 7.38339 0.336085 7.43571 0.358628 7.48389C0.381171 7.53208 0.41343 7.57508 0.453381 7.61021C0.526005 7.68437 0.624617 7.7274 0.728382 7.73021H2.20338V14.9002C2.20084 15.2253 2.07943 15.5382 1.86205 15.7799C1.64467 16.0215 1.34635 16.1753 1.02338 16.2122H0.728382C0.674954 16.212 0.622031 16.2226 0.572738 16.2432C0.523445 16.2638 0.478781 16.2941 0.441381 16.3322C0.402157 16.3675 0.370898 16.4107 0.349688 16.4589C0.328478 16.5072 0.317806 16.5595 0.318381 16.6122V17.6122C0.319011 17.7161 0.358622 17.8161 0.429381 17.8922C0.467494 17.9316 0.513419 17.9627 0.564217 17.9833C0.615014 18.004 0.669566 18.0138 0.724382 18.0122H0.867382C1.66294 18.0199 2.43159 17.7244 3.01708 17.1858C3.60257 16.6471 3.96096 15.9057 4.01938 15.1122C4.03203 15.0504 4.03773 14.9873 4.03638 14.9242V6.33021C4.03658 6.27753 4.02573 6.2254 4.00455 6.17717C3.98336 6.12895 3.95231 6.0857 3.91338 6.05021C3.87822 6.01135 3.8351 5.98052 3.78696 5.95981C3.73881 5.9391 3.68677 5.92901 3.63438 5.93021Z" />
<path fill-rule="evenodd" clip-rule="evenodd" d="M0.342843 -0.00585938C0.0888426 4.67014 4.02384 5.33414 4.02384 5.33414C3.82784 0.214141 0.342843 -0.00585938 0.342843 -0.00585938Z" />
</g>
<defs>
<clipPath id="clip0_80_720">
<rect width="25.688" height="18"  transform="translate(0.3125)"/>
</clipPath>
</defs>
</svg>
