<svg width="130" height="40" viewBox="0 0 130 40"  xmlns="http://www.w3.org/2000/svg">
<path d="M18.5837 21.1376H18.5418L18.5418 40H38.113V39.9568C27.6832 39.9568 19.1621 31.6298 18.5837 21.1376Z"  />
<path d="M18.5837 18.8625C19.1621 8.37031 27.6832 0.0433233 38.113 0.0433233V9.8092e-05H18.541L18.5418 18.8625H18.5837Z"  />
<path d="M0.0458893 19.9519H0.00107492L0.00102315 39.9037H20.9702V39.8581C9.7954 39.8581 0.665639 31.0501 0.0458893 19.9519Z"  />
<path d="M0.0458893 19.9519C0.665639 8.85365 9.79517 0.0457272 20.97 0.0457272V0H0L0.00107492 19.9519H0.0458893Z"  />
<path d="M40.4625 19.952H40.5073L40.5074 9.8092e-05H19.5382V0.0457624C30.713 0.0457624 39.8427 8.85373 40.4625 19.952Z"  />
<path d="M40.466 19.952C39.8462 31.0502 30.7165 39.8581 19.5417 39.8581V39.9038H40.5116L40.5108 19.952H40.466Z"  />
<path d="M14.5417 27.8572V12.1429H25.9702V15.5804H18.8467V18.2813H25.3818V21.7188H18.8467V24.4197H25.9392V27.8572H14.5417Z"  />
<path d="M43.3894 17.457V4.20674H55.085V6.87559H47.5228V9.39407H54.5448V12.0629H47.5228V14.7881H55.085V17.457H43.3894ZM57.8153 17.457V4.20674H60.9858L69.2525 12.4576H68.5949V4.20674H72.5874V17.457H69.4404L61.1737 9.18733H61.8312V17.457H57.8153ZM84.0671 17.6637C82.1726 17.6637 80.56 17.3818 79.2292 16.818C77.9141 16.2541 76.912 15.4648 76.2231 14.4498C75.5342 13.4349 75.1898 12.2509 75.1898 10.8976C75.1898 9.49433 75.5499 8.27892 76.2701 7.25148C77.0059 6.21151 78.055 5.4096 79.4171 4.84576C80.7792 4.28192 82.4232 4 84.349 4C85.1161 4 85.8676 4.05638 86.6035 4.16915C87.3394 4.26939 88.0126 4.42601 88.6232 4.63902C89.2495 4.83949 89.7818 5.07756 90.2202 5.35322L88.9051 8.02206C88.1692 7.64617 87.4411 7.37678 86.7209 7.21389C86.0008 7.03847 85.2179 6.95076 84.3724 6.95076C82.7911 6.95076 81.6091 7.28907 80.8262 7.96568C80.0591 8.62977 79.6754 9.60709 79.6754 10.8976C79.6754 12.1757 80.0668 13.1405 80.8497 13.792C81.6325 14.4436 82.7911 14.7694 84.3255 14.7694C84.7952 14.7694 85.304 14.7318 85.852 14.6566C86.4156 14.5814 86.9793 14.4749 87.5429 14.3371L86.7444 15.6339V12.42H83.433V9.9955H90.2672V16.6488C89.6879 16.8618 89.0538 17.0435 88.3649 17.1939C87.6917 17.3442 86.9871 17.457 86.2513 17.5322C85.5311 17.6199 84.803 17.6637 84.0671 17.6637ZM93.1575 17.457V4.20674H97.4788V17.457H93.1575ZM100.473 17.457V4.20674H103.644L111.911 12.4576H111.253V4.20674H115.246V17.457H112.099L103.832 9.18733H104.489V17.457H100.473ZM118.271 17.457V4.20674H129.967V6.87559H122.404V9.39407H129.427V12.0629H122.404V14.7881H129.967V17.457H118.271ZM51.3743 36C50.1218 36 48.9789 35.8371 47.9455 35.5113C46.9122 35.1856 46.0197 34.722 45.2682 34.1205C44.5324 33.5066 43.9609 32.7798 43.5538 31.9404C43.1624 31.1009 42.9667 30.1737 42.9667 29.1587C42.9667 28.1313 43.1624 27.1978 43.5538 26.3583C43.9609 25.5189 44.5324 24.7984 45.2682 24.1969C46.0197 23.5955 46.9122 23.1382 47.9455 22.8249C48.9789 22.4991 50.1218 22.3363 51.3743 22.3363C52.6269 22.3363 53.7698 22.4991 54.8031 22.8249C55.8365 23.1382 56.7211 23.5955 57.4569 24.1969C58.2085 24.7984 58.78 25.5189 59.1714 26.3583C59.5784 27.1853 59.782 28.1125 59.782 29.1399C59.782 30.1799 59.5784 31.1197 59.1714 31.9591C58.78 32.7986 58.2085 33.5254 57.4569 34.1393C56.7211 34.7408 55.8365 35.2043 54.8031 35.5301C53.7698 35.8434 52.6269 36 51.3743 36ZM51.3743 33.1056C52.2041 33.1056 52.9087 32.949 53.488 32.6358C54.0673 32.3225 54.5135 31.8715 54.8266 31.2825C55.1398 30.6936 55.2963 29.9857 55.2963 29.1587C55.2963 28.3318 55.1398 27.6239 54.8266 27.0349C54.5292 26.446 54.083 26.0012 53.488 25.7005C52.9087 25.3873 52.2041 25.2307 51.3743 25.2307C50.5602 25.2307 49.8556 25.3873 49.2607 25.7005C48.6814 26.0012 48.2352 26.446 47.922 27.0349C47.6089 27.6239 47.4523 28.3318 47.4523 29.1587C47.4523 29.9857 47.6011 30.6936 47.8985 31.2825C48.2117 31.8715 48.6657 32.3225 49.2607 32.6358C49.8556 32.949 50.5602 33.1056 51.3743 33.1056ZM62.3334 35.7933V22.543H66.6547V35.7933H62.3334ZM69.6495 35.7933V22.543H73.9708V32.9177H81.3451V35.7933H69.6495ZM89.2652 36C88.4041 36 87.5586 35.9436 86.7289 35.8308C85.899 35.7181 85.1319 35.5552 84.4273 35.3422C83.7228 35.1292 83.1122 34.8786 82.5955 34.5904L83.7932 31.9028C84.2786 32.1534 84.8187 32.3726 85.4137 32.5606C86.0086 32.7485 86.6349 32.8989 87.2925 33.0116C87.9501 33.1119 88.6077 33.162 89.2652 33.162C90.2986 33.162 91.0188 33.0555 91.4259 32.8425C91.8486 32.617 92.06 32.3413 92.06 32.0155C92.06 31.8151 91.9973 31.6459 91.8721 31.5081C91.7468 31.3702 91.5354 31.2512 91.238 31.151C90.9562 31.0382 90.5725 30.9442 90.0872 30.8691L87.3395 30.3992C85.8364 30.1486 84.7169 29.7101 83.9811 29.0836C83.2452 28.4571 82.8773 27.6489 82.8773 26.659C82.8773 25.782 83.1669 25.0239 83.7463 24.3849C84.3412 23.7334 85.1631 23.2321 86.2122 22.8813C87.2768 22.5179 88.498 22.3363 89.8758 22.3363C90.643 22.3363 91.3789 22.3927 92.0834 22.5054C92.8036 22.6182 93.4691 22.7873 94.0797 23.0129C94.6903 23.2259 95.2069 23.4765 95.6297 23.7647L94.4319 26.2832C93.837 25.9323 93.1403 25.6629 92.3418 25.475C91.5589 25.2745 90.7213 25.1743 89.8289 25.1743C89.2495 25.1743 88.7564 25.2306 88.3493 25.3434C87.9422 25.4437 87.6291 25.594 87.4099 25.7945C87.2063 25.995 87.1046 26.2268 87.1046 26.4899C87.1046 26.753 87.2377 26.9786 87.5039 27.1665C87.7857 27.3419 88.2945 27.4923 89.0304 27.6176L91.7547 28.0874C93.2733 28.3506 94.4085 28.7828 95.16 29.3843C95.9115 29.9857 96.2873 30.7688 96.2873 31.7336C96.2873 32.5857 95.9976 33.3374 95.4183 33.989C94.839 34.628 94.0249 35.1229 92.9759 35.4738C91.9268 35.8246 90.69 36 89.2652 36Z"  />
</svg>
