<svg width="51" height="65" viewBox="0 0 51 65"  xmlns="http://www.w3.org/2000/svg">
<g clip-path="url(#clip0_99_12325)">
<path d="M22.2812 6.29028L24.378 1.57275C24.5286 1.15844 24.9855 1.04834 25.4264 1.04834H38.007C38.3906 1.04834 38.8716 1.23573 39.0554 1.57253L42.2006 6.29028M24.378 6.2905L25.6783 3.25655C25.8434 2.87108 26.2225 2.62114 26.6419 2.62114H36.8745C37.2506 2.62114 37.598 2.82274 37.7847 3.14938L40.1038 6.29028M2.88606 6.2905H47.9667C48.8352 6.2905 49.5393 6.99456 49.5393 7.86308V62.3792C49.5393 63.2477 48.8352 63.9518 47.9667 63.9518H2.88606C2.01754 63.9518 1.31348 63.2477 1.31348 62.3792V7.86308C1.31348 6.99456 2.01754 6.2905 2.88606 6.2905ZM18.5 21.5H33.5V48H18.5V21.5ZM33.9034 19.3953H17.9977C17.7197 19.3953 17.453 19.2848 17.2564 19.0883L13.8941 15.726C13.6047 15.4365 13.1352 15.4365 12.8457 15.726C12.5563 16.0154 12.5563 16.4849 12.8457 16.7744L16.208 20.1367C16.4046 20.3332 16.5151 20.5999 16.5151 20.878V48.3159C16.5151 48.594 16.4046 48.8607 16.208 49.0572L12.8457 52.4195C12.5563 52.709 12.5563 53.1785 12.8457 53.4679C13.1352 53.7574 13.6047 53.7574 13.8941 53.4679L17.2564 50.1056C17.453 49.9091 17.7197 49.7986 17.9977 49.7986H33.9034C34.1815 49.7986 34.4482 49.9091 34.6447 50.1056L38.007 53.4679C38.2965 53.7574 38.766 53.7574 39.0554 53.4679C39.3449 53.1785 39.3449 52.709 39.0554 52.4195L35.6931 49.0572C35.4966 48.8607 35.3861 48.594 35.3861 48.3159V20.878C35.3861 20.5999 35.4966 20.3332 35.6931 20.1367L39.0554 16.7744C39.3449 16.4849 39.3449 16.0154 39.0554 15.726C38.766 15.4365 38.2965 15.4365 38.007 15.726L34.6447 19.0883C34.4482 19.2848 34.1815 19.3953 33.9034 19.3953ZM8.12799 2.62114H16.5151C16.8045 2.62114 17.0393 2.85583 17.0393 3.14533V4.19372C17.0393 4.48322 16.8045 4.71792 16.5151 4.71792H8.12799C7.83849 4.71792 7.6038 4.48322 7.6038 4.19372V3.14533C7.6038 2.85583 7.83849 2.62114 8.12799 2.62114Z" />
<path d="M25.992 39.0377H25.9439C23.9287 39.0377 22.2891 37.433 22.2891 35.4605C22.2891 34.0701 23.2795 32.6166 24.2377 31.2112C24.808 30.374 25.347 29.5832 25.6405 28.8634L25.9923 28L26.3442 28.8634C26.6362 29.5795 27.1631 30.3647 27.7213 31.1962C28.6681 32.6069 29.6476 34.066 29.6476 35.4605C29.6468 37.433 28.0072 39.0377 25.992 39.0377ZM25.9912 29.8657C25.6788 30.4317 25.2811 31.0156 24.8671 31.6225C23.9722 32.9362 23.0461 34.2943 23.0461 35.4605C23.0461 37.0245 24.346 38.2964 25.9435 38.2964H25.9916C27.5895 38.2964 28.8889 37.0241 28.8889 35.4605C28.8889 34.2877 27.9728 32.9228 27.0869 31.6031C26.6847 31.0026 26.2976 30.4255 25.9912 29.8657ZM24.985 37.3688C25.1087 37.2039 25.0724 36.9718 24.9039 36.851C24.4525 36.5263 24.1828 36.0065 24.1828 35.4605C24.1828 35.0157 24.4456 34.3715 24.9868 33.4921C25.0947 33.3169 25.0372 33.0893 24.8577 32.9835C24.6785 32.8772 24.4456 32.9342 24.338 33.11C23.7067 34.1358 23.4253 34.8608 23.4253 35.4605C23.4253 36.2413 23.8104 36.9845 24.4558 37.4482C24.5232 37.4967 24.602 37.5202 24.6797 37.5202C24.796 37.5202 24.9106 37.4674 24.985 37.3688Z" />
</g>
<defs>
<clipPath id="clip0_99_12325">
<rect width="49.2742" height="65"  transform="translate(0.789062)"/>
</clipPath>
</defs>
</svg>
