<svg width="44" height="65" viewBox="0 0 44 65"  xmlns="http://www.w3.org/2000/svg">
<g clip-path="url(#clip0_99_12322)">
<path d="M2.70403 12.2643L7.2555 17.3847C7.48142 17.6388 7.59167 17.9753 7.55992 18.314L5.80503 37.0329C5.78357 37.2618 5.63614 37.4606 5.42007 37.5394C4.32485 37.9387 3.17229 38.1997 2.09082 38.6322M3.93044 6.74543V3.06619C3.93044 2.38886 4.47953 1.83977 5.15686 1.83977H14.9682C15.6455 1.83977 16.1946 2.38886 16.1946 3.06619V6.74543M2.70403 12.8775L3.21584 7.24761C3.27327 6.61591 3.80291 6.13222 4.43721 6.13222H18.6474M7.60969 1.83977V5.51902M12.5153 1.83977V5.51902M2.09082 61.3209V14.5316C2.09082 13.5319 2.69753 12.6322 3.62435 12.2576L30.4693 1.40535C30.7615 1.28727 31.0736 1.22656 31.3887 1.22656H35.8253C36.9117 1.22656 37.8685 1.94105 38.1771 2.98257L42.4615 17.4421C42.5284 17.6683 42.5625 17.903 42.5625 18.1389V57.1692C42.5625 57.4814 42.503 57.7905 42.3871 58.0802L40.7265 62.2319C40.354 63.1631 39.452 63.7737 38.449 63.7737H4.54365C3.18899 63.7737 2.09082 62.6756 2.09082 61.3209ZM35.4407 24.0717L31.1483 27.4104C30.9989 27.5265 30.9116 27.7051 30.9116 27.8943V40.2529C30.9116 40.3945 30.9605 40.5317 31.0502 40.6412L35.3426 45.8876C35.7076 46.3336 36.4304 46.0756 36.4304 45.4993V24.5558C36.4304 24.0455 35.8436 23.7585 35.4407 24.0717Z"/>
<path d="M20.5105 38.0187H20.4625C18.4472 38.0187 16.8076 36.4139 16.8076 34.4415C16.8076 33.0511 17.7981 31.5976 18.7563 30.1922C19.3266 29.3549 19.8656 28.5641 20.159 27.8444L20.5109 26.981L20.8628 27.8444C21.1548 28.5605 21.6816 29.3456 22.2399 30.1771C23.1867 31.5879 24.1661 33.0469 24.1661 34.4415C24.1654 36.4139 22.5258 38.0187 20.5105 38.0187ZM20.5098 28.8467C20.1973 29.4127 19.7997 29.9966 19.3857 30.6034C18.4907 31.9172 17.5647 33.2753 17.5647 34.4415C17.5647 36.0054 18.8646 37.2773 20.4621 37.2773H20.5102C22.1081 37.2773 23.4074 36.005 23.4074 34.4415C23.4074 33.2687 22.4913 31.9038 21.6055 30.584C21.2032 29.9836 20.8162 29.4064 20.5098 28.8467ZM19.5035 36.3498C19.6273 36.1848 19.591 35.9528 19.4225 35.832C18.971 35.5072 18.7013 34.9875 18.7013 34.4415C18.7013 33.9967 18.9641 33.3524 19.5054 32.4731C19.6133 32.2978 19.5558 32.0702 19.3762 31.9645C19.197 31.8582 18.9641 31.9152 18.8566 32.0909C18.2252 33.1167 17.9439 33.8418 17.9439 34.4415C17.9439 35.2222 18.329 35.9654 18.9743 36.4291C19.0418 36.4777 19.1205 36.5011 19.1983 36.5011C19.3145 36.5011 19.4292 36.4484 19.5035 36.3498Z" />
</g>
<defs>
<clipPath id="clip0_99_12322">
<rect width="42.9245" height="65"  transform="translate(0.864258)"/>
</clipPath>
</defs>
</svg>
