<svg width="50" height="50" viewBox="0 0 50 50" xmlns="http://www.w3.org/2000/svg">
<path fill-rule="evenodd" clip-rule="evenodd" d="M25 50C38.8071 50 50 38.8071 50 25C50 11.1929 38.8071 0 25 0C11.1929 0 0 11.1929 0 25C0 38.8071 11.1929 50 25 50ZM26.0612 28.7461C23.9787 29.9031 22.9374 30.4816 22.1062 30.2082C21.8339 30.1187 21.5841 29.9717 21.3736 29.7772C20.731 29.1833 20.731 27.9921 20.731 25.6098C20.731 23.2274 20.731 22.0362 21.3736 21.4424C21.5841 21.2479 21.8339 21.1009 22.1062 21.0113C22.9374 20.738 23.9787 21.3165 26.0612 22.4734C28.2505 23.6897 29.3451 24.2978 29.5405 25.1748C29.6043 25.4613 29.6043 25.7583 29.5405 26.0447C29.3451 26.9217 28.2505 27.5298 26.0612 28.7461Z" />
</svg>
