<svg xmlns="http://www.w3.org/2000/svg" width="21" height="12" viewBox="0 0 21 12" >
  <path d="M9.67 8.72162L7.61397 1.00065L6.09264 1L4.04373 8.68081L2.13202 1.00065H0.5L2.98803 11L4.86465 10.9982L6.85387 3.52876L8.84141 10.9962L10.733 10.9984L13.2222 1L11.5902 1.00255L9.67 8.72162ZM19.1928 5.81222C19.8144 5.3166 20.1357 4.64811 20.1357 3.77213C20.1357 2.98837 19.8786 2.33139 19.3429 1.8012C18.8178 1.28253 18.175 1.00592 17.4143 1.00592H13.7285V10.9988H17.7036C18.4965 10.9988 19.1393 10.7223 19.6856 10.1805C20.2322 9.63886 20.5 8.95869 20.5 8.14041C20.5 7.10309 20.0072 6.27326 19.1928 5.81222ZM15.2607 2.5504H17.425C18.0999 2.5504 18.6144 3.12668 18.6144 3.86434C18.6144 4.602 18.0999 5.17828 17.425 5.17828H15.2607V2.5504ZM17.7142 9.466H15.2607V6.66514H17.7142C18.4214 6.66514 18.9786 7.27605 18.9786 8.05983C18.9786 8.84359 18.4214 9.466 17.7142 9.466Z"  stroke-width="0.5"/>
</svg>