<svg width="22" height="12" viewBox="0 0 22 12"  xmlns="http://www.w3.org/2000/svg">
<path d="M10.17 8.72162L8.11397 1.00065L6.59264 1L4.54373 8.68081L2.63202 1.00065H1L3.48803 11L5.36465 10.9982L7.35387 3.52876L9.34141 10.9962L11.233 10.9984L13.7222 1L12.0902 1.00255L10.17 8.72162ZM19.6928 5.81222C20.3144 5.3166 20.6357 4.64811 20.6357 3.77213C20.6357 2.98837 20.3786 2.33139 19.8429 1.8012C19.3178 1.28253 18.675 1.00592 17.9143 1.00592H14.2285V10.9988H18.2036C18.9965 10.9988 19.6393 10.7223 20.1856 10.1805C20.7322 9.63886 21 8.95869 21 8.14041C21 7.10309 20.5072 6.27326 19.6928 5.81222ZM15.7607 2.5504H17.925C18.5999 2.5504 19.1144 3.12668 19.1144 3.86434C19.1144 4.602 18.5999 5.17828 17.925 5.17828H15.7607V2.5504ZM18.2142 9.466H15.7607V6.66514H18.2142C18.9214 6.66514 19.4786 7.27605 19.4786 8.05983C19.4786 8.84359 18.9214 9.466 18.2142 9.466Z" stroke="#0A1B36" stroke-width="0.5"/>
</svg>
